<svg width="32" height="32" viewBox="0 0 32 32" fill="none" xmlns="http://www.w3.org/2000/svg">
<path d="M17.0001 2.66666C9.64008 2.66666 3.66675 8.63999 3.66675 16C3.66675 23.36 9.64008 29.3333 17.0001 29.3333C24.3601 29.3333 30.3334 23.36 30.3334 16C30.3334 8.63999 24.3601 2.66666 17.0001 2.66666ZM17.0001 6.66666C19.2134 6.66666 21.0001 8.45332 21.0001 10.6667C21.0001 12.88 19.2134 14.6667 17.0001 14.6667C14.7867 14.6667 13.0001 12.88 13.0001 10.6667C13.0001 8.45332 14.7867 6.66666 17.0001 6.66666ZM17.0001 25.6C13.6667 25.6 10.7201 23.8933 9.00008 21.3067C9.04008 18.6533 14.3334 17.2 17.0001 17.2C19.6534 17.2 24.9601 18.6533 25.0001 21.3067C23.2801 23.8933 20.3334 25.6 17.0001 25.6Z" fill="white"/>
</svg>
