<svg width="32" height="32" viewBox="0 0 32 32" fill="none" xmlns="http://www.w3.org/2000/svg">
<path d="M10.3335 24C8.86683 24 7.68016 25.2 7.68016 26.6667C7.68016 28.1333 8.86683 29.3333 10.3335 29.3333C11.8002 29.3333 13.0002 28.1333 13.0002 26.6667C13.0002 25.2 11.8002 24 10.3335 24ZM2.3335 2.66666V5.33332H5.00016L9.80016 15.4533L8.00016 18.72C7.78683 19.0933 7.66683 19.5333 7.66683 20C7.66683 21.4667 8.86683 22.6667 10.3335 22.6667H26.3335V20H10.8935C10.7068 20 10.5602 19.8533 10.5602 19.6667L10.6002 19.5067L11.8002 17.3333H21.7335C22.7335 17.3333 23.6135 16.7867 24.0668 15.96L28.8402 7.30666C28.9468 7.11999 29.0002 6.89332 29.0002 6.66666C29.0002 5.93332 28.4002 5.33332 27.6668 5.33332H7.94683L6.6935 2.66666H2.3335ZM23.6668 24C22.2002 24 21.0135 25.2 21.0135 26.6667C21.0135 28.1333 22.2002 29.3333 23.6668 29.3333C25.1335 29.3333 26.3335 28.1333 26.3335 26.6667C26.3335 25.2 25.1335 24 23.6668 24Z" fill="white"/>
</svg>
